<svg width="80" height="80" viewBox="0 0 80 80" fill="none" xmlns="http://www.w3.org/2000/svg">
<g clip-path="url(#clip0_3869_3585)">
<path d="M76.6666 66.6666V73.3333H73.3332V76.6666H6.66658V73.3333H3.33325V49.9999H6.66658V53.3333H9.99992V56.6666H13.3333V59.9999H16.6666V63.3333H19.9999V66.6666H23.3333V69.9999H26.6666V66.6666H29.9999V63.3333H33.3332V59.9999H36.6666V56.6666H39.9999V53.3333H43.3332V49.9999H46.6666V46.6666H49.9999V43.3333H53.3332V46.6666H56.6666V49.9999H59.9999V53.3333H63.3332V56.6666H66.6666V59.9999H69.9999V63.3333H73.3332V66.6666H76.6666Z" fill="#1A9A56"/>
<path d="M73.3332 6.66659V3.33325H6.66658V6.66659H3.33325V39.9999H6.66658V43.3333H9.99992V46.6666H13.3333V49.9999H16.6666V53.3333H19.9999V56.6666H23.3333V59.9999H26.6666V56.6666H29.9999V53.3333H33.3332V49.9999H36.6666V46.6666H39.9999V43.3333H43.3332V39.9999H46.6666V36.6666H49.9999V33.3333H53.3332V36.6666H56.6666V39.9999H59.9999V43.3333H63.3332V46.6666H66.6666V49.9999H69.9999V53.3333H73.3332V56.6666H76.6666V6.66659H73.3332ZM29.9999 19.9999V29.9999H26.6666V33.3333H16.6666V29.9999H13.3333V19.9999H16.6666V16.6666H26.6666V19.9999H29.9999Z" fill="#1A9A56"/>
</g>
<defs>
<clipPath id="clip0_3869_3585">
<rect width="80" height="80" fill="white"/>
</clipPath>
</defs>
</svg>
