<svg width="24" height="24" viewBox="0 0 24 24" fill="none" xmlns="http://www.w3.org/2000/svg">
<path d="M2 11.3529H20.5714H22V8.76471H20.5714V7.47059H19.1429V6.17647H17.7143V4.88235H16.2857V3.58824H14.8571V2.29412H13.4286V1H12V2.29412H10.5714V3.58824H12V4.88235H13.4286V6.17647H14.8571V7.47059H16.2857V8.76471H2V11.3529Z" fill="#1A9A56"/>
<path d="M21.9995 12.6471H3.42808H1.99951V15.2353H3.42808V16.5294H4.85666V17.8235H6.28523V19.1176H7.7138V20.4118H9.14237V21.7059H10.5709V23H11.9995V21.7059H13.4281V20.4118H11.9995V19.1176H10.5709V17.8235H9.14237V16.5294H7.7138V15.2353H21.9995V12.6471Z" fill="#1A9A56"/>
</svg>
