<svg width="24" height="24" viewBox="0 0 24 24" fill="none" xmlns="http://www.w3.org/2000/svg">
<path d="M2.50023 20.5043H1.5V22.5047H2.50023V20.5043Z" fill="#1A9A56"/>
<path d="M3.50023 18.5039H2.5V20.5044H3.50023V18.5039Z" fill="#1A9A56"/>
<path d="M4.50072 16.5034H3.50049V18.5039H4.50072V16.5034Z" fill="#1A9A56"/>
<path d="M5.50072 15.5032H4.50049V16.5034H5.50072V15.5032Z" fill="#1A9A56"/>
<path d="M6.5012 14.5029H5.50098V15.5032H6.5012V14.5029Z" fill="#1A9A56"/>
<path d="M7.5012 13.5027H6.50098V14.5029H7.5012V13.5027Z" fill="#1A9A56"/>
<path d="M8.50169 12.5026H7.50146V13.5028H8.50169V12.5026Z" fill="#1A9A56"/>
<path d="M15.5032 12.5026H14.5029V13.5028H15.5032V12.5026Z" fill="#1A9A56"/>
<path d="M16.5032 13.5027H15.5029V14.5029H16.5032V13.5027Z" fill="#1A9A56"/>
<path d="M17.5036 14.5029H16.5034V15.5032H17.5036V14.5029Z" fill="#1A9A56"/>
<path d="M18.5036 15.5032H17.5034V16.5034H18.5036V15.5032Z" fill="#1A9A56"/>
<path d="M19.5041 16.5034H18.5039V18.5039H19.5041V16.5034Z" fill="#1A9A56"/>
<path d="M20.5041 18.5039H19.5039V20.5044H20.5041V18.5039Z" fill="#1A9A56"/>
<path d="M21.5046 20.5043H20.5044V22.5047H21.5046V20.5043Z" fill="#1A9A56"/>
<path d="M20.5041 22.5048H2.5V23.505H20.5041V22.5048Z" fill="#1A9A56"/>
<path d="M18.5039 20.5043V18.5038H17.5037V16.5034H16.5034V15.5031H15.5032V14.5029H14.503V13.5027H11.5023V14.5029H10.5021V15.5031H6.50117V16.5034H5.50094V18.5038H4.50072V20.5043H3.50049V21.5045H19.5041V20.5043H18.5039ZM7.5014 17.5036H9.50185V19.504H7.5014V17.5036ZM11.5023 16.5034H12.5025V17.5036H11.5023V16.5034Z" fill="#1A9A56"/>
<path d="M14.5032 3.50049H13.5029V12.5025H14.5032V3.50049Z" fill="#1A9A56"/>
<path d="M9.50169 3.50049H8.50146V12.5025H9.50169V3.50049Z" fill="#1A9A56"/>
<path d="M15.5032 2.50024H14.5029V3.50047H15.5032V2.50024Z" fill="#1A9A56"/>
<path d="M8.50169 2.50024H7.50146V3.50047H8.50169V2.50024Z" fill="#1A9A56"/>
<path d="M14.5028 1.5H8.50146V2.50023H14.5028V1.5Z" fill="#1A9A56"/>
</svg>
