<svg width="24" height="23" viewBox="0 0 24 23" fill="none" xmlns="http://www.w3.org/2000/svg">
<path d="M21 9.58337V8.62504H20V6.70837H21V4.79171H20V3.83337H19V2.87504H17V3.83337H15V2.87504H14V0.958374H10V2.87504H9V3.83337H7V2.87504H5V3.83337H4V4.79171H3V6.70837H4V8.62504H3V9.58337H1V13.4167H3V14.375H4V16.2917H3V18.2084H4V19.1667H5V20.125H7V19.1667H9V20.125H10V22.0417H14V20.125H15V19.1667H17V20.125H19V19.1667H20V18.2084H21V16.2917H20V14.375H21V13.4167H23V9.58337H21ZM21 12.4584H20V13.4167H19V14.375H18V16.2917H19V18.2084H17V17.25H15V18.2084H14V19.1667H13V20.125H11V19.1667H10V18.2084H9V17.25H7V18.2084H5V16.2917H6V14.375H5V13.4167H4V12.4584H3V10.5417H4V9.58337H5V8.62504H6V6.70837H5V4.79171H7V5.75004H9V4.79171H10V3.83337H11V2.87504H13V3.83337H14V4.79171H15V5.75004H17V4.79171H19V6.70837H18V8.62504H19V9.58337H20V10.5417H21V12.4584Z" fill="#2CFF8E"/>
<path d="M16 9.58337V8.62504H15V7.66671H14V6.70837H10V7.66671H9V8.62504H8V9.58337H7V13.4167H8V14.375H9V15.3334H10V16.2917H14V15.3334H15V14.375H16V13.4167H17V9.58337H16ZM15 13.4167H14V14.375H10V13.4167H9V9.58337H10V8.62504H14V9.58337H15V13.4167Z" fill="#2CFF8E"/>
</svg>
