<svg width="20" height="20" viewBox="0 0 20 20" fill="none" xmlns="http://www.w3.org/2000/svg">
<g clip-path="url(#clip0_3844_44638)">
<path d="M19.1666 11.6667V12.5H18.3333V14.1667H17.4999V15.8334H16.6666V16.6667H15.8333V17.5H14.1666V18.3334H12.4999V19.1667H7.49992V18.3334H5.83325V17.5H4.16658V16.6667H2.49992V17.5H1.66659V18.3334H0.833252V12.5H6.66658V13.3334H5.83325V14.1667H4.99992V15.8334H5.83325V16.6667H7.49992V17.5H12.4999V16.6667H14.1666V15.8334H15.8333V14.1667H16.6666V11.6667H19.1666Z" fill="#1A9A56"/>
<path d="M19.1666 1.66665V7.49998H13.3333V6.66665H14.1666V5.83331H14.9999V4.16665H14.1666V3.33331H12.4999V2.49998H7.49992V3.33331H5.83325V4.16665H4.16658V5.83331H3.33325V8.33331H0.833252V7.49998H1.66659V5.83331H2.49992V4.16665H3.33325V3.33331H4.16658V2.49998H5.83325V1.66665H7.49992V0.833313H12.4999V1.66665H14.1666V2.49998H15.8333V3.33331H17.4999V2.49998H18.3333V1.66665H19.1666Z" fill="#1A9A56"/>
</g>
<defs>
<clipPath id="clip0_3844_44638">
<rect width="20" height="20" fill="white"/>
</clipPath>
</defs>
</svg>
